<!DOCTYPE svg PUBLIC "-//W3C//DTD SVG 1.1//EN" "http://www.w3.org/Graphics/SVG/1.1/DTD/svg11.dtd">
<!-- Uploaded to: SVG Repo, www.svgrepo.com, Transformed by: SVG Repo Mixer Tools -->
<svg width="800px" height="800px" viewBox="0 0 24 24" xmlns="http://www.w3.org/2000/svg" id="suitcase-bag" class="icon glyph" fill="#000000">
<g id="SVGRepo_bgCarrier" stroke-width="0"/>
<g id="SVGRepo_tracerCarrier" stroke-linecap="round" stroke-linejoin="round"/>
<g id="SVGRepo_iconCarrier">
<path d="M21,6H3A1,1,0,0,0,2,7v6.28a2,2,0,0,0,1.37,1.9l4.52,1.51a13.13,13.13,0,0,0,8.22,0l4.54-1.52A2,2,0,0,0,22,13.28V7A1,1,0,0,0,21,6Zm-8,7H11a1,1,0,0,1,0-2h2a1,1,0,0,1,0,2Zm7.6,3.25-.5,4a2,2,0,0,1-2,1.76H5.88a2,2,0,0,1-2-1.76l-.5-4,4.18,1.39a14.06,14.06,0,0,0,4.42.71,14.16,14.16,0,0,0,4.43-.71ZM14,2H10A4,4,0,0,0,6.13,5H8.27A2,2,0,0,1,10,4h4a2,2,0,0,1,1.73,1h2.14A4,4,0,0,0,14,2Z" style="fill:#ffffff"/>
</g>
</svg>